<svg width="33" height="33" viewBox="0 0 33 33" fill="none" xmlns="http://www.w3.org/2000/svg">
<rect width="33" height="33" rx="16.5" fill="url(#paint0_linear_10_98)"/>
<path d="M23.0131 20.7475C23.0131 21.0175 22.9609 21.295 22.8501 21.565C22.7392 21.835 22.5957 22.09 22.4065 22.33C22.0869 22.735 21.7346 23.0275 21.3367 23.215C20.9454 23.4025 20.5214 23.5 20.0648 23.5C19.3994 23.5 18.6884 23.32 17.9383 22.9525C17.1881 22.585 16.438 22.09 15.6944 21.4675C14.9443 20.8375 14.2333 20.14 13.5549 19.3675C12.883 18.5875 12.2764 17.77 11.735 16.915C11.2001 16.06 10.7696 15.205 10.4565 14.3575C10.1434 13.5025 9.98682 12.685 9.98682 11.905C9.98682 11.395 10.0651 10.9075 10.2216 10.4575C10.3782 10 10.6261 9.58 10.9718 9.205C11.3892 8.7325 11.8459 8.5 12.3286 8.5C12.5112 8.5 12.6938 8.545 12.8569 8.635C13.0265 8.725 13.1765 8.86 13.2939 9.055L14.8073 11.5075C14.9247 11.695 15.0095 11.8675 15.0682 12.0325C15.1269 12.19 15.1595 12.3475 15.1595 12.49C15.1595 12.67 15.1138 12.85 15.0225 13.0225C14.9377 13.195 14.8138 13.375 14.6572 13.555L14.1615 14.1475C14.0897 14.23 14.0571 14.3275 14.0571 14.4475C14.0571 14.5075 14.0637 14.56 14.0767 14.62C14.0963 14.68 14.1158 14.725 14.1289 14.77C14.2463 15.0175 14.4485 15.34 14.7355 15.73C15.0291 16.12 15.3422 16.5175 15.6813 16.915C16.0336 17.3125 16.3728 17.68 16.7185 18.0175C17.0577 18.3475 17.3382 18.5725 17.56 18.7075C17.5926 18.7225 17.6317 18.745 17.6774 18.7675C17.7295 18.79 17.7817 18.7975 17.8404 18.7975C17.9513 18.7975 18.0361 18.7525 18.1079 18.67L18.6036 18.1075C18.7667 17.92 18.9232 17.7775 19.0733 17.6875C19.2233 17.5825 19.3733 17.53 19.5364 17.53C19.6603 17.53 19.7908 17.56 19.9343 17.6275C20.0778 17.695 20.2278 17.7925 20.3909 17.92L22.55 19.6825C22.7196 19.8175 22.837 19.975 22.9088 20.1625C22.974 20.35 23.0131 20.5375 23.0131 20.7475Z" fill="white"/>
<defs>
<linearGradient id="paint0_linear_10_98" x1="16.5" y1="0" x2="16.5" y2="33" gradientUnits="userSpaceOnUse">
<stop stop-color="#DC0000"/>
<stop offset="1" stop-color="#760000"/>
</linearGradient>
</defs>
</svg>
