<svg width="30" height="30" viewBox="0 0 30 30" fill="none" xmlns="http://www.w3.org/2000/svg">
<path d="M27.4805 25.0195H8.49609L29.2383 4.27734C29.7461 3.76953 30 3.1836 30 2.51953C30 1.85547 29.7461 1.26953 29.2383 0.761719C28.7305 0.253903 28.1445 0 27.4805 0C26.8164 0 26.2305 0.253903 25.7227 0.761719L4.98047 21.5039V2.51953C4.98047 1.77734 4.75586 1.17188 4.30664 0.703125C3.85742 0.234373 3.26172 0 2.51953 0C1.73828 0 1.12305 0.234373 0.673828 0.703125C0.224606 1.17188 0 1.77734 0 2.51953V27.5391C0 27.6562 0.009765 27.8223 0.0292969 28.0371C0.0488288 28.252 0.117188 28.418 0.234375 28.5352C0.351562 28.7695 0.527342 29.0039 0.761719 29.2383C0.996096 29.4727 1.25 29.6484 1.52344 29.7656C1.64062 29.8828 1.79687 29.9512 1.99219 29.9707C2.1875 29.9902 2.36328 30 2.51953 30H27.4805C28.2617 30 28.8769 29.7754 29.3262 29.3262C29.7754 28.8769 30 28.2813 30 27.5391C30 26.7578 29.7754 26.1426 29.3262 25.6934C28.8769 25.2441 28.2617 25.0195 27.4805 25.0195Z" fill="black"/>
</svg>
